<svg xmlns="http://www.w3.org/2000/svg" xmlns:xlink="http://www.w3.org/1999/xlink" width="500" zoomAndPan="magnify" viewBox="0 0 375 374.999991" height="500" preserveAspectRatio="xMidYMid meet" version="1.0"><defs><filter x="0%" y="0%" width="100%" height="100%" id="f55496a55e"><feColorMatrix values="0 0 0 0 1 0 0 0 0 1 0 0 0 0 1 0 0 0 1 0" color-interpolation-filters="sRGB"/></filter><clipPath id="9e96e5de1b"><path d="M 169 115.253906 L 247 115.253906 L 247 260 L 169 260 Z M 169 115.253906 " clip-rule="nonzero"/></clipPath><clipPath id="84755ad9b1"><path d="M 80.683594 115.253906 L 166 115.253906 L 166 260 L 80.683594 260 Z M 80.683594 115.253906 " clip-rule="nonzero"/></clipPath><clipPath id="38833ca1b9"><path d="M 128 115.253906 L 294.433594 115.253906 L 294.433594 260.003906 L 128 260.003906 Z M 128 115.253906 " clip-rule="nonzero"/></clipPath><mask id="f519c42182"><g filter="url(#f55496a55e)"><rect x="-37.5" width="450" fill="#000000" y="-37.499999" height="449.999989" fill-opacity="0.8"/></g></mask><clipPath id="a84cece680"><path d="M 0.398438 0.253906 L 166.433594 0.253906 L 166.433594 145 L 0.398438 145 Z M 0.398438 0.253906 " clip-rule="nonzero"/></clipPath><clipPath id="5e5d4fe474"><rect x="0" width="167" y="0" height="146"/></clipPath></defs><g clip-path="url(#9e96e5de1b)"><path fill="#818a92" d="M 205.945312 115.253906 L 246.09375 259.746094 L 209.40625 259.105469 L 169.042969 115.253906 Z M 205.945312 115.253906 " fill-opacity="1" fill-rule="nonzero"/></g><g clip-path="url(#84755ad9b1)"><path fill="#6d767e" d="M 128.894531 259.746094 L 80.714844 115.253906 L 117.660156 115.253906 L 165.839844 259.746094 Z M 128.894531 259.746094 " fill-opacity="1" fill-rule="nonzero"/></g><g clip-path="url(#38833ca1b9)"><g mask="url(#f519c42182)"><g transform="matrix(1, 0, 0, 1, 128, 115)"><g clip-path="url(#5e5d4fe474)"><g clip-path="url(#a84cece680)"><path fill="#424a52" d="M 166.273438 0.253906 L 118.09375 144.746094 L 81.148438 144.746094 L 129.328125 0.253906 Z M 0.894531 144.746094 L 37.582031 144.105469 L 77.945312 0.253906 L 41 0.253906 Z M 0.894531 144.746094 " fill-opacity="1" fill-rule="nonzero"/></g></g></g></g></g></svg>